<svg width="1000" height="180" viewBox="0 0 1000 180" fill="none" xmlns="http://www.w3.org/2000/svg">
<path d="M537.472 67.056V70.92H553.712V73.384C553.544 83.072 552.312 90.912 549.96 96.96C547.44 102.784 543.016 107.488 536.632 110.96L538.872 114.488C545.368 111.072 550.128 106.256 553.04 100.04C554.72 96.288 555.896 91.808 556.68 86.656H577.176C577.064 97.184 576.672 103.736 576.112 106.2C575.44 108.72 573.928 110.008 571.576 110.12C569.448 110.064 566.76 109.952 563.456 109.84L564.464 113.704C567.6 113.816 570.344 113.928 572.584 113.928C575.72 113.928 577.96 112.472 579.304 109.56C580.536 106.648 581.152 97.744 581.264 82.96H557.128C557.464 79.992 557.632 76.8 557.688 73.384V70.92H586.528V67.056H537.472ZM618.112 63.192C616.544 71.592 613.968 78.032 610.384 82.512L613.352 85.032C615.256 82.68 616.936 79.768 618.448 76.184H622.312C620.184 86.936 616.264 94.832 610.496 99.76L613.128 102.784C619.4 97.24 623.656 88.392 625.896 76.184H630.264C629.2 84.696 627.576 91.584 625.392 96.792C623.04 101.944 619.568 106.648 614.864 110.904L617.328 114.096C622.424 109.448 626.232 104.184 628.808 98.36C630.992 92.928 632.672 85.536 633.904 76.184H637.712C637.6 92.424 637.376 102.168 636.984 105.304C636.48 108.888 634.52 110.68 631.104 110.68C629.816 110.68 628.304 110.568 626.512 110.456L627.464 114.096C629.48 114.208 630.88 114.264 631.664 114.264C637.096 114.264 640.12 111.8 640.736 106.872C641.296 102.504 641.576 90.968 641.576 72.264H619.848C620.632 69.8 621.304 67.112 621.92 64.2L618.112 63.192ZM597.84 78.872H602.432V93.992C599.296 95.224 596.048 96.232 592.688 97.016L593.64 100.936C596.664 99.984 599.576 98.92 602.432 97.8V114.6H606.352V96.12C607.864 95.392 609.376 94.664 610.832 93.88V90.072C609.376 90.856 607.92 91.584 606.352 92.312V78.872H611.056V74.952H606.352V63.304H602.432V74.952H598.512C598.848 72.544 599.072 70.08 599.184 67.616L595.656 67.336C595.376 73.888 594.2 80.104 592.072 86.04L595.6 87.048C596.496 84.416 597.224 81.672 597.84 78.872ZM658.824 78.816V87.16H653.28C654.68 83.576 655.968 79.488 657.2 74.896H668.008V71.088H658.152C658.656 68.848 659.16 66.44 659.664 63.92L655.968 63.08C655.464 65.88 654.96 68.512 654.4 71.088H648.856V74.896H653.504C652.216 79.88 650.816 84.08 649.248 87.44L650.088 90.8H658.824V99.144C655.576 99.76 652.104 100.32 648.408 100.768L648.912 104.688C652.328 104.184 655.632 103.624 658.824 103.008V114.6H662.576V102.168L667.896 100.824V97.016C666.216 97.464 664.48 97.912 662.576 98.36V90.8H667.728V87.16H662.576V78.816H658.824ZM675.344 75.96V79.264H691.416V75.904H675.4C678.2 73.216 680.888 70.248 683.576 67C687.832 72.488 692.592 77.136 697.856 80.944L699.984 77.752C694.888 74.168 689.904 69.408 685.032 63.36H682.12C677.584 68.96 672.432 73.888 666.72 78.088L668.904 81.448C671.088 79.768 673.216 77.92 675.344 75.96ZM679.264 114.208C682.008 114.208 683.408 112.752 683.408 109.896V83.744H670.192V114.6H673.72V104.128H679.992V109.168C679.992 110.4 679.376 111.016 678.144 111.016L675.68 110.904L676.576 114.208H679.264ZM673.72 100.992V95.672H679.992V100.992H673.72ZM673.72 92.536V86.992H679.992V92.536H673.72ZM686.768 85.312V105.416H689.904V85.312H686.768ZM692.872 114.32C695.56 114.32 696.96 112.696 696.96 109.504V82.792H693.432V108.608C693.432 110.176 692.816 111.016 691.64 111.016C690.24 111.016 688.784 110.904 687.272 110.792L688.112 114.32H692.872ZM727.536 76.24C723.952 91.136 716.168 102.56 704.184 110.4L706.592 113.816C718.352 106.2 726.08 95.224 729.776 80.944C730.056 81.616 730.336 82.4 730.672 83.296C736.44 98.08 743.832 108.272 752.904 113.76L755.424 110.512C746.576 104.968 739.576 95.504 734.312 82.12C730.84 73.048 726.64 66.72 721.656 63.248L718.296 65.376C721.88 67.952 724.96 71.536 727.536 76.24ZM768.92 73.44H783.592V69.744H768.92V63.528H765V81.336C765 82.12 764.496 82.736 763.544 83.184L764.832 86.824C771.888 85.368 778.496 83.632 784.656 81.728L783.648 78.2C778.776 79.768 773.848 81.056 768.92 82.176V73.44ZM803.192 85.704C805.208 85.648 806.776 85.256 807.896 84.528C809.016 83.576 809.856 80.832 810.36 76.352L806.608 75.232C806.384 78.704 805.768 80.776 804.816 81.392C804.088 81.784 803.192 82.008 802.128 82.008H793.616C792.104 82.008 791.376 81.28 791.376 79.936V75.4C796.864 74.056 802.688 72.096 808.792 69.408L806.552 66.328C801.624 68.68 796.528 70.472 791.376 71.76V63.472H787.456V80.664C787.456 84.024 789.136 85.704 792.496 85.704H803.192ZM804.368 89.512H784.656C785.608 88.056 786.336 86.544 786.896 84.92L782.696 84.36C782.136 86.152 781.408 87.832 780.4 89.512H768.08V114.712H772V111.968H800.448V114.656H804.368V89.512ZM772 108.272V102.56H800.448V108.272H772ZM772 98.976V93.208H800.448V98.976H772ZM839.368 78.928H845.472V75.568H839.368V70.192C842.056 69.184 844.408 68.176 846.312 67.168L844.016 64.2C841.384 65.768 838.584 66.944 835.672 67.728V87.944H848.496V92.872H835.336V96.512H837.688C839.816 100.432 842.84 103.848 846.872 106.704C842.672 108.496 837.632 109.952 831.808 111.072L833.824 114.656C840.376 113.2 845.976 111.296 850.68 109.056C854.992 111.408 860.2 113.256 866.304 114.544L867.76 110.792C862.832 109.784 858.52 108.44 854.824 106.76C859.416 103.848 862.776 100.376 864.792 96.288V92.872H852.248V87.944H864.96V65.992H855.16V69.464H861.32V75.568H855.44V78.928H861.32V84.472H852.248V63.472H848.496V84.472H839.368V78.928ZM841.832 96.512H860.424C858.296 99.648 855.104 102.392 850.904 104.744C847.04 102.448 844.016 99.704 841.832 96.512ZM823.24 114.096C826.264 114.096 827.832 112.472 827.832 109.28V93.04C829.736 92.144 831.64 91.248 833.488 90.296V86.376C831.64 87.384 829.736 88.336 827.832 89.176V77.864H833.04V74H827.832V63.528H823.912V74H817.696V77.864H823.912V90.744C821.56 91.64 819.152 92.368 816.688 93.04L817.584 96.848C819.712 96.176 821.784 95.448 823.912 94.664V108.272C823.912 109.784 823.184 110.568 821.84 110.568C820.384 110.568 818.816 110.456 817.136 110.288L817.976 114.096H823.24ZM894.36 82.12V101.328H910.992V82.12H894.36ZM907.184 97.688H898.168V85.704H907.184V97.688ZM898.448 63.192C896.768 70.248 893.52 76.184 888.76 81.112L891.224 84.304C894.304 81.168 896.824 77.696 898.84 73.832H917.544C917.432 90.912 917.208 101.104 916.816 104.408C916.368 108.44 914.52 110.512 911.272 110.512C909.032 110.512 906.344 110.4 903.264 110.288L904.216 113.984C907.8 114.096 910.376 114.208 911.832 114.208C917.096 114.208 920.064 111.464 920.736 106.032C921.24 101.44 921.52 89.456 921.52 69.968H900.576C901.36 67.952 901.976 65.88 902.536 63.696L898.448 63.192ZM888.144 64.424C886.576 66.944 884.896 69.24 883.104 71.312C881.592 69.072 879.744 66.832 877.616 64.648L874.424 67.112C876.776 69.24 878.736 71.536 880.304 74.112C877.952 76.24 875.376 78.032 872.576 79.432L874.76 82.904C877.616 81.112 880.08 79.376 882.152 77.64C882.376 78.088 882.6 78.648 882.824 79.208C883.384 80.72 883.832 82.512 884.168 84.528C881.368 89.12 877.504 93.096 872.464 96.4L874.704 99.76C878.624 97.016 881.984 93.656 884.84 89.624C884.952 91.696 885.064 93.992 885.12 96.512C885.12 103.68 884.336 107.992 882.768 109.392C882.096 110.064 880.696 110.4 878.624 110.4C877.392 110.4 876.16 110.288 874.872 110.12L876.048 113.872C876.944 113.872 878.064 113.928 879.52 113.928C882.096 113.928 884.056 113.424 885.4 112.528C887.752 110.736 888.984 105.416 888.984 96.68C888.816 88.392 887.92 82.008 886.296 77.472C885.96 76.576 885.568 75.736 885.12 74.84C887.248 72.6 889.376 69.8 891.392 66.44L888.144 64.424Z" fill="#3B3E3E"/>
<circle cx="501" cy="87" r="5" fill="#FF6933"/>
<path d="M228.833 81.3971C228.224 80.0243 227.396 78.7561 226.383 77.6404C228.963 76.162 231.379 74.4195 233.591 72.4416C231.722 69.3078 229.639 66.3037 227.356 63.4505C227.68 63.771 227.518 63.5395 226.887 62.7383L230.707 59.9075C233.27 62.5524 235.508 65.4866 237.375 68.6493C239.285 66.4416 241.213 64.0915 243.123 61.5277L246.961 63.3081C244.642 66.3248 242.164 69.219 239.537 71.9787C242.24 77.9787 243.754 88.6434 243.609 101.89C243.91 110.4 240.877 114.554 234.51 114.353H228.761C228.709 113.949 228.625 113.55 228.509 113.16C228.374 111.956 228.139 110.765 227.806 109.599C229.476 109.777 231.155 109.854 232.834 109.83C236.816 110.151 238.744 107.658 238.582 101.373C238.474 97.2784 238.582 92.4713 238.294 89.5514C235.519 93.6086 232.013 97.1271 227.95 99.9312C227.482 98.1508 226.923 98.1508 226.148 96.3704C230.632 93.0733 234.442 88.9649 237.375 84.2636C237.053 81.4935 236.35 78.78 235.284 76.1983C233.301 78.1317 231.135 79.8726 228.815 81.3971H228.833ZM248.024 81.5929L243.844 78.3526C248.458 72.577 252.108 66.1096 254.656 59.1953L259.665 60.1389C259.503 60.4594 259.251 61.0113 258.944 61.7947C258.362 63.5061 257.639 65.1675 256.782 66.7621H282.19C281.865 85.2072 281.541 97.7472 281.217 104.382C281.217 111.148 277.865 114.548 271.162 114.548C268.459 114.709 265.017 114.78 260.872 114.78C260.766 113.138 260.5 111.511 260.079 109.919C263.107 110.08 266.296 110.151 269.648 110.151C274.117 110.311 275.955 107.534 275.955 103.421C276.441 94.1271 276.712 82.5188 276.712 70.6968H254.854C253.412 73.225 251.34 76.857 249.592 79.5989H269.414V102.299H249.358V79.7235C248.882 80.3199 248.442 80.9442 248.042 81.5929H248.024ZM254.385 82.946V98.2576H264.693V82.946H254.385Z" fill="#F55E24"/>
<path d="M165.296 75.5603V71.6256H171.765V60.1953H176.792V71.6256H182.054V75.5603H176.828V87.5247C177.726 87.2684 178.604 86.9532 179.459 86.5811C180.739 86.2606 181.622 86.0291 182.09 85.8689C182.101 86.7814 182.179 87.6918 182.324 88.5929V89.7146L180.18 90.4268C179.04 90.6548 177.919 90.9703 176.828 91.3704V109.869C176.99 113.821 175.152 115.94 171.314 116.261C170.511 116.287 169.711 116.365 168.918 116.492H166.521C166.474 115.767 166.316 115.052 166.053 114.373C165.911 113.398 165.701 112.435 165.422 111.489C166.531 111.657 167.652 111.735 168.774 111.721C169.146 111.768 169.525 111.738 169.885 111.631C170.245 111.525 170.579 111.345 170.864 111.104C171.149 110.862 171.38 110.564 171.542 110.228C171.703 109.893 171.791 109.528 171.801 109.157V93.0262C169.729 93.6493 167.566 94.3615 165.332 95.1449L164.863 91.0677C165.319 90.8577 165.796 90.6966 166.287 90.587C167.728 90.1241 169.566 89.6434 171.801 89.1627V75.5603H165.296ZM208.147 77.4475V74.1894H214.85V67.4416H207.462V63.9876H219.913V88.8244H205.083V94.3081H218.238V98.5277C215.351 102.348 211.785 105.618 207.714 108.178C212.78 109.772 217.987 110.892 223.265 111.525C223.036 112.346 222.716 113.141 222.31 113.893C221.977 114.711 221.579 115.503 221.121 116.261C214.687 115.276 208.407 113.481 202.434 110.919C196.097 113.65 189.438 115.582 182.613 116.67C182.45 116.35 182.054 115.637 181.405 114.534C180.757 113.43 180.54 112.753 180.216 112.166C186.024 111.1 191.773 109.745 197.443 108.106C193.592 105.175 190.203 101.695 187.388 97.7799H184.757V94.219H199.839V88.8244H185.009V65.1627C188.574 64.44 192.089 63.4945 195.533 62.3318L197.335 65.5366C194.614 66.3377 192.415 66.9609 190.019 67.4416V74.1894H197.227V77.4475H190.019V85.2102H199.839V60.1953H205.119V85.2102H214.94V77.4475H208.147ZM211.985 97.8511H193.587C196.055 101.063 199.044 103.848 202.434 106.094C206.063 103.88 209.301 101.096 212.021 97.8511" fill="#F55E24"/>
<path d="M287.362 73.118V68.667H293.056C293.465 67.3603 293.784 66.0279 294.011 64.6789C294.498 62.7916 294.804 61.4741 294.966 60.6907L299.724 61.1536L297.814 68.667H307.076V73.118H296.624C295.195 78.2812 293.771 83.029 292.354 87.3614H297.579V78.4593H301.381V87.3614H305.85V92.0617H301.345V100.269C302.155 100.214 302.954 100.058 303.724 99.8065C304.681 99.6995 305.632 99.539 306.571 99.3258C306.383 100.963 306.305 102.61 306.337 104.258L301.345 104.97V116.703H296.588V105.433L292.083 106.145C290.173 106.447 288.678 106.697 287.56 106.839L287.092 101.907L296.588 100.75V92.1151H287.831V87.3614C289.11 83.302 290.443 78.4593 291.885 73.118H287.362ZM342.232 80.3999C340.646 79.6166 338.502 78.4415 335.817 76.8391C335.295 76.4065 334.741 76.0137 334.159 75.664V78.9578H315.383V75.9133C313.51 77.3866 311.528 78.7197 309.454 79.9014C308.862 80.2351 308.306 80.6289 307.796 81.0765C307.312 80.5454 306.911 79.9452 306.607 79.2961C306.029 78.4677 305.391 77.6823 304.697 76.9459C313.406 72.5661 319.581 67.0112 323.221 60.2812L328.627 60.762C328.402 61.0338 328.236 61.3491 328.141 61.6878C327.886 62.0669 327.651 62.4592 327.438 62.8628C331.978 68.5859 337.954 73.0359 344.773 75.7709L342.232 80.3999ZM308.499 116.542V83.1952H324.411V110.649C324.411 114.21 322.753 116.133 319.437 116.275H315.148C315.087 115.248 314.93 114.229 314.68 113.231C314.546 112.773 314.467 112.301 314.446 111.824H317.761C319.347 111.824 320.14 111.13 320.14 109.706V104.792H312.77V116.525L308.499 116.542ZM312.77 87.2011V92.1329H320.14V87.1833L312.77 87.2011ZM312.77 95.8896V101.053H320.14V95.8896H312.77ZM324.897 66.3169C322.54 69.43 319.832 72.2673 316.824 74.7738H333.204C330.003 72.3959 327.2 69.5362 324.897 66.299V66.3169ZM328.699 106.447V85.3139H332.736V106.43L328.699 106.447ZM329.87 116.062C329.855 115.66 329.776 115.264 329.636 114.887C329.33 113.106 329.078 112.002 328.933 111.326C330.591 111.503 332.258 111.58 333.925 111.557C336.285 111.717 337.403 110.614 337.241 108.263V82.483H341.511V109.474C341.667 113.854 339.529 116.044 335.096 116.044L329.87 116.062Z" fill="#F55E24"/>
<path d="M400.651 115.35C390.836 108.454 383.082 97.8128 377.388 83.4271L376.433 81.7891C372.313 95.5662 363.608 107.567 351.728 115.848L347.691 110.507C360.46 102.324 369.507 89.5542 372.919 74.8989C370.39 70.8845 367.247 67.281 363.603 64.2164L368.126 61.1719C373.351 65.255 378.259 72.2164 382.848 82.0561C388.542 95.3499 396.062 104.661 405.408 109.991C403.69 111.657 402.099 113.449 400.651 115.35V115.35Z" fill="#F55E24"/>
<path d="M417.987 88.591C415.064 85.7515 411.971 83.088 408.725 80.6147L412.329 76.6266C416.461 79.7601 419.711 82.3417 422.077 84.3714L417.987 88.591ZM415.374 116.276L409.445 114.496C411.5 109.333 413.794 102.449 416.329 93.8432C418.092 94.5769 419.897 95.2071 421.735 95.7304C421.467 96.3105 421.232 96.9049 421.032 97.5108C418.726 104.989 416.84 111.244 415.374 116.276ZM420.131 73.5465C419.834 73.2821 419.515 73.0438 419.176 72.8343C416.464 70.1841 413.613 67.6762 410.635 65.3209L414.239 61.5643L421.122 66.9055C422.112 67.6326 423.063 68.4111 423.969 69.2379L420.131 73.5465ZM426.78 75.6473V70.7512H441.989V60.6562H447.683V70.7334H463.36V75.6651H447.683V86.9352H465.973V91.8669H446.494C442.217 97.9559 437.94 103.665 433.664 108.995L454.332 108.051C453.233 106.644 451.72 104.49 449.828 101.713C449.035 100.632 448.476 99.8491 448.152 99.3625L452.675 96.7809C454.477 98.9886 457.27 102.816 461.216 108.282C463.126 110.793 464.459 112.591 465.252 113.624L460.279 116.454L457.414 112.466C451.251 112.609 443.731 112.995 434.853 113.624L427.501 114.336L425.123 109.404C426.851 108.348 428.376 106.998 429.627 105.416C433.228 101.138 436.488 96.5901 439.376 91.8135H424.167V86.953H441.989V75.683L426.78 75.6473Z" fill="#F55E24"/>
<path d="M145.834 97.5296C149.096 106.093 141.492 110.081 138.735 111.773C135.978 113.464 121.922 121.067 97.2893 123.755C86.6938 125.09 85.2522 121.173 84.189 117.15L72.26 71.4999C72.0006 70.5928 71.9344 69.6425 72.0655 68.7088C72.1966 67.7752 72.5222 66.8785 73.0217 66.0755C73.5212 65.2724 74.1838 64.5804 74.9677 64.0431C75.7515 63.5058 76.6396 63.135 77.5758 62.9539C102.01 57.9331 117.958 53.7313 123.814 52.3782C129.671 51.0251 131.256 53.4287 132.572 57.577L145.834 97.5296Z" fill="url(#paint0_linear_6652_20129)"/>
<path d="M129.905 73.5471L126.661 65.4284C126.661 65.4284 108.462 64.6984 94.3522 70.4491C80.2428 76.1999 80.1167 85.3156 81.7385 89.0189C83.4323 93.096 87.1444 97.369 108.768 94.7874C118.841 93.4521 119.76 96.5678 119.76 96.5678C119.76 96.5678 122.012 100.022 108.516 103.903C99.7041 106.289 87.9913 104.829 87.9913 104.829L91.397 113.144C101.39 114.034 111.463 112.938 121.021 109.921C121.021 109.921 140.969 103.974 137.239 91.3512C134.338 82.9298 122.355 82.734 113.075 83.5886C113.075 83.5886 99.3977 85.458 99.2896 80.9714C99.0013 75.6658 114.21 72.6034 129.905 73.5471Z" fill="#DF4125"/>
<path d="M129.942 71.9806L126.699 63.862C126.699 63.862 108.499 63.132 94.3894 68.8827C80.28 74.6335 80.1538 83.7492 81.7756 87.4525C83.4875 91.5296 87.1815 95.8026 108.805 93.221C118.86 91.8857 119.779 95.0014 119.779 95.0014C119.779 95.0014 122.05 98.4554 108.553 102.337C99.7412 104.722 88.0284 103.263 88.0284 103.263L91.4342 111.577C101.428 112.467 111.5 111.372 121.058 108.355C121.058 108.355 141.006 102.408 137.276 89.7848C134.375 81.3634 122.392 81.1676 113.094 82.0222C113.094 82.0222 99.4349 83.8026 99.3268 79.3872C99.0385 74.0993 114.247 71.037 129.942 71.9806Z" fill="white"/>
<defs>
<linearGradient id="paint0_linear_6652_20129" x1="109.308" y1="51.7907" x2="109.308" y2="125.144" gradientUnits="userSpaceOnUse">
<stop stop-color="#FF6933"/>
<stop offset="1" stop-color="#EF4823"/>
</linearGradient>
</defs>
</svg>
